<?xml version="1.0" encoding="UTF-8" standalone="no"?>
<svg
   xmlns:dc="http://purl.org/dc/elements/1.1/"
   xmlns:cc="http://creativecommons.org/ns#"
   xmlns:rdf="http://www.w3.org/1999/02/22-rdf-syntax-ns#"
   xmlns:svg="http://www.w3.org/2000/svg"
   xmlns="http://www.w3.org/2000/svg"
   height="354.70126"
   width="500"
   xml:space="preserve"
   viewBox="0 0 500 354.70126"
   y="0px"
   x="0px"
   id="LOGO"
   version="1.1"><metadata
     id="metadata70"><rdf:RDF><cc:Work
         rdf:about=""><dc:format>image/svg+xml</dc:format><dc:type
           rdf:resource="http://purl.org/dc/dcmitype/StillImage" /><dc:title></dc:title></cc:Work></rdf:RDF></metadata><defs
     id="defs68" /><style
     id="style2"
     type="text/css">
	.Arched_x0020_Green{fill:url(#SVGID_1_);stroke:#transparent;stroke-width:0.25;stroke-miterlimit:1;}
	.st0{fill:#ffffff;}
</style><linearGradient
     y2="1399.2928"
     x2="-599.29291"
     y1="1400"
     x1="-600"
     gradientUnits="userSpaceOnUse"
     id="SVGID_1_"><stop
       id="stop4"
       style="stop-color:#20AC4B"
       offset="0" /><stop
       id="stop6"
       style="stop-color:#19361A"
       offset="0.9831" /></linearGradient><g
     transform="translate(-150,-222.59875)"
     id="g63"><g
       id="g59"><g
         id="g17"><polygon
           style="fill:#ffffff"
           id="polygon9"
           points="168,532.8 192,532.8 192,545.1 152.6,545.1 152.6,495.3 168,495.3 "
           class="st0" /><path
           style="fill:#ffffff"
           id="path11"
           d="m 202.9,520.2 c 0,-8.1 2.3,-14.5 6.8,-19 4.5,-4.5 10.9,-6.8 18.9,-6.8 8.3,0 14.7,2.2 19.2,6.7 4.5,4.5 6.7,10.7 6.7,18.7 0,5.8 -1,10.6 -2.9,14.3 -2,3.7 -4.8,6.6 -8.5,8.7 -3.7,2.1 -8.3,3.1 -13.9,3.1 -5.6,0 -10.3,-0.9 -14,-2.7 -3.7,-1.8 -6.7,-4.6 -9,-8.5 -2.2,-3.8 -3.3,-8.7 -3.3,-14.5 z m 15.4,0.1 c 0,5 0.9,8.7 2.8,10.8 1.9,2.2 4.4,3.3 7.6,3.3 3.3,0 5.9,-1.1 7.7,-3.2 1.8,-2.2 2.7,-6 2.7,-11.6 0,-4.7 -0.9,-8.1 -2.8,-10.3 -1.9,-2.2 -4.5,-3.2 -7.7,-3.2 -3.1,0 -5.6,1.1 -7.5,3.3 -1.9,2.2 -2.8,5.8 -2.8,10.9 z"
           class="st0" /><path
           style="fill:#ffffff"
           id="path13"
           d="m 294.9,527.1 v -10.4 h 23.8 V 538 c -4.6,3.1 -8.6,5.2 -12.1,6.3 -3.5,1.1 -7.7,1.7 -12.5,1.7 -5.9,0 -10.7,-1 -14.5,-3 -3.7,-2 -6.6,-5 -8.7,-9 -2.1,-4 -3.1,-8.6 -3.1,-13.7 0,-5.4 1.1,-10.2 3.4,-14.2 2.2,-4 5.5,-7.1 9.9,-9.2 3.4,-1.6 7.9,-2.4 13.6,-2.4 5.5,0 9.6,0.5 12.4,1.5 2.7,1 5,2.5 6.8,4.6 1.8,2.1 3.2,4.8 4.1,8 l -14.9,2.7 c -0.6,-1.9 -1.6,-3.3 -3.1,-4.3 -1.5,-1 -3.3,-1.5 -5.6,-1.5 -3.4,0 -6.1,1.2 -8.1,3.5 -2,2.3 -3,6.1 -3,11.1 0,5.4 1,9.3 3,11.6 2,2.3 4.9,3.5 8.5,3.5 1.7,0 3.4,-0.3 4.9,-0.7 1.6,-0.5 3.4,-1.3 5.4,-2.6 v -4.7 h -10.2 z"
           class="st0" /><path
           style="fill:#ffffff"
           id="path15"
           d="m 332.9,520.2 c 0,-8.1 2.3,-14.5 6.8,-19 4.5,-4.5 10.9,-6.8 18.9,-6.8 8.3,0 14.7,2.2 19.2,6.7 4.5,4.5 6.7,10.7 6.7,18.7 0,5.8 -1,10.6 -2.9,14.3 -2,3.7 -4.8,6.6 -8.5,8.7 -3.7,2.1 -8.3,3.1 -13.9,3.1 -5.6,0 -10.3,-0.9 -14,-2.7 -3.7,-1.8 -6.7,-4.6 -9,-8.5 -2.2,-3.8 -3.3,-8.7 -3.3,-14.5 z m 15.4,0.1 c 0,5 0.9,8.7 2.8,10.8 1.9,2.2 4.4,3.3 7.6,3.3 3.3,0 5.9,-1.1 7.7,-3.2 1.8,-2.2 2.7,-6 2.7,-11.6 0,-4.7 -0.9,-8.1 -2.8,-10.3 -1.9,-2.2 -4.5,-3.2 -7.7,-3.2 -3.1,0 -5.6,1.1 -7.5,3.3 -1.9,2.2 -2.8,5.8 -2.8,10.9 z"
           class="st0" /></g><path
         style="fill:#ffffff"
         id="path19"
         d="m 426.5,495.3 h 46.8 v 12.3 h -15.7 v 37.6 h -15.4 v -37.6 h -15.7 z"
         class="st0" /><path
         style="fill:#ffffff"
         id="path21"
         d="m 487.2,495.3 h 41.3 v 10.6 h -25.8 v 7.9 h 24 V 524 h -24 v 9.8 h 26.6 v 11.3 h -42 v -49.8 z"
         class="st0" /><path
         style="fill:#ffffff"
         id="path23"
         d="m 542.1,495.3 h 17 l 8.8,15.3 8.6,-15.3 h 16.8 l -15.5,24.2 17,25.7 h -17.3 l -9.8,-16 -9.8,16 h -17.2 l 17.2,-26 z"
         class="st0" /><path
         style="fill:#ffffff"
         id="path25"
         d="M 603.2,495.3 H 650 v 12.3 h -15.7 v 37.6 h -15.4 v -37.6 h -15.7 z"
         class="st0" /><g
         id="g57"><path
           style="fill:#ffffff"
           id="path27"
           d="m 156.2,577 v -6.8 l -6.2,-9.3 h 2.6 l 3.2,4.9 c 0.6,0.9 1.1,1.8 1.6,2.7 0.5,-0.8 1.1,-1.8 1.8,-2.8 l 3.1,-4.7 h 2.5 l -6.4,9.3 v 6.8 h -2.2 z"
           class="st0" /><path
           style="fill:#ffffff"
           id="path29"
           d="m 180.9,569.2 c 0,-2.7 0.7,-4.8 2.2,-6.3 1.4,-1.5 3.3,-2.3 5.6,-2.3 1.5,0 2.8,0.4 4,1.1 1.2,0.7 2.1,1.7 2.7,3 0.6,1.3 0.9,2.7 0.9,4.3 0,1.6 -0.3,3.1 -1,4.4 -0.7,1.3 -1.6,2.3 -2.8,2.9 -1.2,0.7 -2.5,1 -3.9,1 -1.5,0 -2.9,-0.4 -4.1,-1.1 -1.2,-0.7 -2.1,-1.7 -2.7,-3 -0.6,-1.2 -0.9,-2.6 -0.9,-4 z m 2.2,0 c 0,1.9 0.5,3.5 1.6,4.6 1,1.1 2.4,1.7 3.9,1.7 1.6,0 2.9,-0.6 4,-1.7 1,-1.1 1.6,-2.7 1.6,-4.8 0,-1.3 -0.2,-2.5 -0.7,-3.4 -0.4,-1 -1.1,-1.7 -1.9,-2.3 -0.9,-0.5 -1.8,-0.8 -2.9,-0.8 -1.5,0 -2.8,0.5 -3.9,1.6 -1.1,1 -1.7,2.7 -1.7,5.1 z"
           class="st0" /><path
           style="fill:#ffffff"
           id="path31"
           d="m 224.5,560.9 h 2.1 v 9.3 c 0,1.6 -0.2,2.9 -0.6,3.9 -0.4,1 -1,1.7 -2,2.3 -1,0.6 -2.2,0.9 -3.8,0.9 -1.5,0 -2.7,-0.3 -3.7,-0.8 -1,-0.5 -1.6,-1.3 -2.1,-2.3 -0.4,-1 -0.6,-2.3 -0.6,-4 v -9.3 h 2.1 v 9.3 c 0,1.4 0.1,2.4 0.4,3.1 0.3,0.7 0.7,1.2 1.3,1.5 0.6,0.4 1.4,0.5 2.3,0.5 1.6,0 2.7,-0.4 3.4,-1.1 0.7,-0.7 1,-2.1 1,-4.1 v -9.2 z"
           class="st0" /><path
           style="fill:#ffffff"
           id="path33"
           d="m 245.1,577 v -16.1 h 7.1 c 1.4,0 2.5,0.1 3.3,0.4 0.7,0.3 1.3,0.8 1.8,1.5 0.4,0.7 0.7,1.5 0.7,2.4 0,1.1 -0.4,2.1 -1.1,2.9 -0.7,0.8 -1.9,1.3 -3.4,1.5 0.6,0.3 1,0.5 1.3,0.8 0.6,0.6 1.2,1.3 1.8,2.1 l 2.8,4.4 h -2.7 l -2.1,-3.4 c -0.6,-1 -1.1,-1.7 -1.5,-2.2 -0.4,-0.5 -0.8,-0.9 -1.1,-1.1 -0.3,-0.2 -0.6,-0.3 -1,-0.4 -0.2,-0.1 -0.6,-0.1 -1.2,-0.1 h -2.5 v 7.2 h -2.2 z m 2.1,-9 h 4.6 c 1,0 1.7,-0.1 2.3,-0.3 0.5,-0.2 1,-0.5 1.3,-1 0.3,-0.4 0.4,-0.9 0.4,-1.4 0,-0.8 -0.3,-1.4 -0.8,-1.9 -0.6,-0.5 -1.4,-0.7 -2.6,-0.7 h -5.1 v 5.3 z"
           class="st0" /><path
           style="fill:#ffffff"
           id="path35"
           d="m 301,577 v -14.2 h -5.3 v -1.9 h 12.8 v 1.9 h -5.3 V 577 Z"
           class="st0" /><path
           style="fill:#ffffff"
           id="path37"
           d="m 322.1,577 6.2,-16.1 h 2.3 l 6.6,16.1 h -2.4 l -1.9,-4.9 h -6.7 l -1.8,4.9 z m 4.7,-6.6 h 5.5 l -1.7,-4.5 c -0.5,-1.4 -0.9,-2.5 -1.1,-3.3 -0.2,1 -0.5,2.1 -0.9,3.1 z"
           class="st0" /><path
           style="fill:#ffffff"
           id="path39"
           d="m 361.3,570.7 v -1.9 h 6.8 v 6 c -1,0.8 -2.1,1.5 -3.2,1.9 -1.1,0.4 -2.3,0.6 -3.4,0.6 -1.6,0 -3,-0.3 -4.3,-1 -1.3,-0.7 -2.3,-1.7 -2.9,-2.9 -0.7,-1.3 -1,-2.7 -1,-4.3 0,-1.6 0.3,-3 1,-4.4 0.7,-1.4 1.6,-2.4 2.8,-3 1.2,-0.7 2.7,-1 4.3,-1 1.2,0 2.2,0.2 3.2,0.6 0.9,0.4 1.7,0.9 2.2,1.6 0.5,0.7 0.9,1.6 1.2,2.6 l -2,0.5 c -0.2,-0.8 -0.5,-1.5 -0.9,-1.9 -0.4,-0.5 -0.9,-0.8 -1.5,-1.1 -0.7,-0.3 -1.4,-0.4 -2.2,-0.4 -1,0 -1.8,0.1 -2.5,0.4 -0.7,0.3 -1.3,0.7 -1.7,1.2 -0.4,0.5 -0.8,1 -1,1.6 -0.4,1 -0.6,2.1 -0.6,3.2 0,1.4 0.2,2.6 0.7,3.6 0.5,1 1.2,1.7 2.2,2.2 0.9,0.5 2,0.7 3,0.7 0.9,0 1.8,-0.2 2.7,-0.5 0.9,-0.4 1.5,-0.7 2,-1.1 v -3 h -4.9 z"
           class="st0" /><path
           style="fill:#ffffff"
           id="path41"
           d="m 386.1,577 v -16.1 h 2.1 v 14.2 h 7.9 v 1.9 z"
           class="st0" /><path
           style="fill:#ffffff"
           id="path43"
           d="M 413.9,577 V 560.9 H 416 V 577 Z"
           class="st0" /><path
           style="fill:#ffffff"
           id="path45"
           d="m 434.6,577 v -16.1 h 2.2 l 8.5,12.7 v -12.7 h 2 V 577 h -2.2 l -8.5,-12.7 V 577 Z"
           class="st0" /><path
           style="fill:#ffffff"
           id="path47"
           d="m 465.8,577 v -16.1 h 11.7 v 1.9 H 468 v 4.9 h 8.9 v 1.9 H 468 v 5.5 h 9.9 v 1.9 z"
           class="st0" /><path
           style="fill:#ffffff"
           id="path49"
           d="m 516.9,577 v -16.1 h 2.1 v 6.6 h 8.4 v -6.6 h 2.1 V 577 h -2.1 v -7.6 H 519 v 7.6 z"
           class="st0" /><path
           style="fill:#ffffff"
           id="path51"
           d="m 548,577 v -16.1 h 11.7 v 1.9 h -9.5 v 4.9 h 8.9 v 1.9 h -8.9 v 5.5 h 9.9 v 1.9 z"
           class="st0" /><path
           style="fill:#ffffff"
           id="path53"
           d="m 577.9,577 v -16.1 h 7.1 c 1.4,0 2.5,0.1 3.3,0.4 0.7,0.3 1.3,0.8 1.8,1.5 0.4,0.7 0.7,1.5 0.7,2.4 0,1.1 -0.4,2.1 -1.1,2.9 -0.7,0.8 -1.9,1.3 -3.4,1.5 0.6,0.3 1,0.5 1.3,0.8 0.6,0.6 1.2,1.3 1.8,2.1 l 2.8,4.4 h -2.7 l -2.1,-3.4 c -0.6,-1 -1.1,-1.7 -1.5,-2.2 -0.4,-0.5 -0.8,-0.9 -1.1,-1.1 -0.3,-0.2 -0.6,-0.3 -1,-0.4 -0.2,-0.1 -0.6,-0.1 -1.2,-0.1 H 580 v 7.2 h -2.1 z m 2.1,-9 h 4.6 c 1,0 1.7,-0.1 2.3,-0.3 0.5,-0.2 1,-0.5 1.3,-1 0.3,-0.4 0.4,-0.9 0.4,-1.4 0,-0.8 -0.3,-1.4 -0.8,-1.9 -0.6,-0.5 -1.4,-0.7 -2.6,-0.7 H 580 Z"
           class="st0" /><path
           style="fill:#ffffff"
           id="path55"
           d="m 609,577 v -16.1 h 11.7 v 1.9 h -9.5 v 4.9 h 8.9 v 1.9 h -8.9 v 5.5 h 9.9 v 1.9 z"
           class="st0" /></g></g><path
       style="fill:#ffffff"
       id="path61"
       d="m 457.6,321.8 17.5,-50.9 c 5.8,1.8 12.3,-0.6 15.5,-6.1 3.7,-6.4 1.5,-14.6 -4.9,-18.3 -6.4,-3.7 -14.6,-1.5 -18.3,4.9 -3.2,5.6 -2,12.5 2.6,16.6 l -47.9,35.2 -17.3,-53.9 c 6.3,-1 11.2,-6.4 11.4,-13 0.1,-7.4 -5.8,-13.5 -13.2,-13.7 -7.4,-0.1 -13.5,5.8 -13.7,13.2 -0.1,6.7 4.7,12.3 11.2,13.4 L 381,302.5 334.6,265.6 c 4.5,-4 5.9,-10.6 3.1,-16.1 -3.4,-6.6 -11.5,-9.2 -18.1,-5.9 -6.6,3.4 -9.2,11.5 -5.9,18.1 2.9,5.8 9.4,8.5 15.4,6.9 l 15.5,50 -38.6,38.8 94.4,94.4 93.6,-93.6 z m -133,35.6 26.8,-26.7 h 96.4 l 27.6,27.6 -75,75 z"
       class="st0" /></g></svg>