<svg xmlns="http://www.w3.org/2000/svg" width="782.401" height="130.542" viewBox="0 0 782.40069 130.54161"><g stroke-width="1.333"><path d="M26.492 123.294c-3.232-1.706-7.614-5.569-9.738-8.584-4.258-6.045-4.753-10.802-2.88-27.647.935-8.402.755-9.69-1.798-12.903-1.56-1.964-4.926-4.26-7.481-5.104-5.876-1.939-5.876-3.38 0-5.32 2.555-.842 5.922-3.139 7.481-5.103 2.553-3.214 2.733-4.5 1.798-12.903-1.728-15.54-1.294-21.216 2.033-26.6 3.7-5.985 11.323-11.235 17.855-12.295 6.853-1.112 6.2 1.508-1.191 4.777-8.735 3.864-10.27 8.182-7.845 22.077 2.67 15.309-.451 23.907-10.682 29.416-2.619 1.41-4.762 2.955-4.762 3.433 0 .478 1.837 1.63 4.081 2.559 2.245.93 5.58 3.655 7.412 6.057 5.223 6.847 6.055 11.892 3.951 23.95-2.424 13.895-.89 18.213 7.845 22.077 3.324 1.47 6.045 3.246 6.045 3.945 0 2.268-6.105 1.346-12.124-1.832zm446.79-23.028c-33.042-11.934-42.597-60.307-17.327-87.721 7.647-8.296 15.929-11.988 28.241-12.59 8.757-.427 11.306-.015 17.53 2.835 9.688 4.435 17.574 12.587 22.639 23.405 3.46 7.39 4.241 10.89 4.685 21.009 1.07 24.339-9.096 43.366-27.523 51.517-8.201 3.627-20.6 4.306-28.245 1.545zm24.24-6.615c5.79-3.738 11.685-11.972 15.221-21.254 3.954-10.382 3.587-35.892-.67-46.559-3.59-8.991-12.09-18.98-18.415-21.638-17.572-7.386-34.705 10.35-38.27 39.616-2.678 22.002 8.82 47.16 24.06 52.637 6.243 2.244 11.53 1.424 18.074-2.802zm71.77 5.288c-6.09-2.64-10.272-6.642-13.806-13.21-2.678-4.975-2.915-7.73-3.537-41.12-.664-35.632-.68-35.798-3.814-38.333-1.732-1.4-4.282-2.546-5.667-2.546-1.386 0-2.52-.6-2.52-1.333 0-.823 6.89-1.334 18-1.334 11.112 0 18 .51 18 1.334 0 .733-1.133 1.333-2.518 1.333-4.664 0-8.371 4.39-9.051 10.72-.639 5.94-.617 5.977 21.799 35.502 12.34 16.255 22.902 29.11 23.47 28.568 2.242-2.146 3.618-17.956 3.607-41.457-.014-28.161-.653-30.657-8.34-32.568-8.709-2.166-5.377-3.432 9.034-3.432 14.263 0 17.418 1.105 9.686 3.391-7.137 2.11-7.645 4.671-7.666 38.7-.022 33.832-1.142 40.951-7.664 48.702-5.422 6.444-12.652 9.153-24.356 9.126-5.944-.014-11.889-.842-14.657-2.043zm28.138-6.363l3.482-1.513-15.907-20.666c-8.749-11.367-17.099-22.167-18.556-24l-2.649-3.334.527 16.667c.709 22.398 4.657 31.434 15.145 34.658 4.282 1.316 12.716.465 17.958-1.812zm-260.148 4.68c0-.627 1.943-1.697 4.317-2.378 6.292-1.805 7.641-5.704 7.664-22.148l.02-14.333h11.782l.442 16.777c.54 20.509 1.025 21.176 14.592 20.105 12.968-1.024 26.794-8.368 24.79-13.166-.395-.944-14.852-18.816-32.128-39.716-17.276-20.9-31.426-38.75-31.445-39.667-.026-1.279 6.14-1.667 26.48-1.667 31.15 0 36.783 1.23 46.765 10.204 8.528 7.667 12.319 16.58 13.111 30.821 1.563 28.083-9.142 47.188-30.059 53.649-7.245 2.237-12.399 2.66-32.471 2.66-13.123 0-23.86-.514-23.86-1.14zm72.523-38.526c1.251-12.974-1.083-28.861-5.527-37.615-6.58-12.963-18.09-17.949-39.498-17.109l-9.949.39 26.077 31.667C395.25 53.48 407.423 67.73 407.96 67.73c.537 0 1.367-4.05 1.844-9zm239.477 39.046c0-.341 13.2-21.281 29.334-46.533 16.133-25.251 29.333-46.272 29.333-46.713 0-1.489-32.627-.664-37.209.942-6.2 2.172-9.208 6.734-10.943 16.591-.973 5.533-2.09 8.334-3.324 8.334-1.475 0-1.857-3.019-1.857-14.667V1.063h71.857l-30.017 47-30.016 47 16.125.375c8.869.206 18.478-.259 21.354-1.033 6.75-1.818 10.419-7.007 12.231-17.297.935-5.31 2.049-8.045 3.275-8.045 1.475 0 1.857 3.019 1.857 14.667v14.667h-36c-19.8 0-36-.28-36-.62z" fill="#fefefe"/><path d="M93.83 1.256c-62.428 86.065-31.214 43.033 0 0z" fill="#5cdbc0"/><path d="M747.949 125.206c0-.517 2.082-1.693 4.627-2.614 2.545-.92 5.916-3.482 7.49-5.694 2.994-4.204 2.999-4.471.447-24.6-1.341-10.576 4.89-20.406 15.402-24.294 2.674-.99 2.366-1.417-3.78-5.237-9.025-5.61-12.817-12.883-11.612-22.272 2.513-19.572 2.48-21.27-.484-25.027-1.56-1.977-4.92-4.347-7.464-5.268-6.846-2.475-5.623-3.981 1.313-1.618 7.093 2.417 14.657 10.266 16.57 17.193 1.003 3.633.823 7.757-.694 15.937-1.883 10.152-1.869 11.38.179 15.34 1.398 2.703 4.163 5.116 7.435 6.49 2.866 1.204 5.21 2.488 5.21 2.855 0 .366-2.344 1.65-5.21 2.854-3.272 1.374-6.037 3.788-7.435 6.491-2.048 3.96-2.062 5.187-.179 15.34 2.597 14.001 1.346 19.285-6.312 26.663-4.973 4.79-15.503 9.859-15.503 7.461zM84.907 99.616c6.321-1.528 10.323-5.735 12.313-12.943 2.678-9.698-4.86-19.075-24.323-30.256-7.76-4.458-12.805-10.771-13.875-17.366l-.8-4.926 3.864 2.006c2.125 1.103 6.263 3.922 9.196 6.264 2.934 2.342 9.234 6.563 14 9.379 17.408 10.285 24.356 20.732 21.31 32.042-2.67 9.915-9.214 15.113-20.66 16.409l-6.65.752zM57.282 85.879c0-8.543.529-14.148 1.334-14.148.733 0 1.212 1.955 1.362 4.333.827 13.104 9.628 23.123 15.629 22.334 1.156-.152 1.718.401 1.227.892-.491.491-3.957-.542-7.703-2.297l-6.81-3.19-2.52 3.112c-2.507 3.097-2.519 3.044-2.519-11.036zm82.993 10.426c2.013-1.091 4.754-4.217 6.092-6.946 1.337-2.729 8.362-23.72 15.61-46.646l13.179-41.684 12.262 35.684c10.628 30.929 12.436 35.24 13.568 32.351.718-1.833 5.993-17.889 11.721-35.68 5.729-17.79 10.827-31.89 11.329-31.333.502.557 7.353 20.408 15.224 44.113 12.643 38.076 14.843 43.632 18.878 47.667l4.567 4.567-14.378-.054c-13.51-.05-14.157-.173-10.711-2.042 2.817-1.529 3.672-2.984 3.69-6.28.024-4.13-21.316-68.94-22.703-68.952-.917-.008-17.339 52.06-17.329 54.944.017 4.9 5.642 17.05 9.083 19.618l3.592 2.681-16-.078c-12.18-.06-14.973-.375-11.697-1.321 8.593-2.483 8.485-3.653-3.742-40.758-6.119-18.567-11.469-33.758-11.89-33.758-1.161 0-20.004 60.5-20.004 64.23 0 4.515 2.892 8.03 8.184 9.945 4.057 1.468 3.218 1.626-8.851 1.67-12.544.045-13.117-.07-9.674-1.938zm146.298-.017c2.543-1.103 5.083-2.73 5.646-3.615 1.335-2.101 1.335-83.783 0-85.884-.563-.885-3.103-2.512-5.646-3.615-4.425-1.92-3.88-2.005 12.71-2.005 16.588 0 17.134.086 12.709 2.005-2.543 1.103-5.084 2.73-5.646 3.615-1.336 2.1-1.336 83.783 0 85.884.562.885 3.103 2.512 5.646 3.615 4.425 1.919 3.88 2.005-12.71 2.005-16.589 0-17.134-.086-12.71-2.005zM111.179 64.665c-2.257-1.615-6.04-5.153-8.409-7.863-2.367-2.71-9.645-8.298-16.172-12.416-14.234-8.982-17.887-13.933-17.887-24.242C68.71 9.3 82.154-1.055 93.855 1.905l4.858 1.229-7.366.102c-6.966.096-15.385 6.84-15.393 13.184-.008 6.552 5.415 12.767 17.277 19.802 16.511 9.792 27.807 16.358 24.051 28.132-1.238 3.88-.786 4.113-6.103.31zm.326-40.49c-.49-.49-.897-2.14-.905-3.667-.01-1.528-1.51-5.39-3.334-8.58-1.824-3.192-6.322-8.025-6.322-8.215 0-.19 4.392 1.985 6.087 2.31 2.25.43 3.485-.25 4.576-2.52 1.226-2.547 1.511-.885 1.585 9.227.09 12.333-.024 13.108-1.687 11.444zM100.695 3.02c-67.005 84.888-33.503 42.444 0 0z" fill="#21ceaa"/></g></svg>