<?xml version="1.0" encoding="UTF-8" standalone="no"?>
<svg
   xmlns:dc="http://purl.org/dc/elements/1.1/"
   xmlns:cc="http://creativecommons.org/ns#"
   xmlns:rdf="http://www.w3.org/1999/02/22-rdf-syntax-ns#"
   xmlns:svg="http://www.w3.org/2000/svg"
   xmlns="http://www.w3.org/2000/svg"
   style="shape-rendering:crispEdges"
   version="1.1"
   id="svg2"
   viewBox="0 0 383.76352 1343.2997"
   height="379.10904mm"
   width="108.30659mm">
  <defs
     id="defs4" />
  <metadata
     id="metadata7">
    <rdf:RDF>
      <cc:Work
         rdf:about="">
        <dc:format>image/svg+xml</dc:format>
        <dc:type
           rdf:resource="http://purl.org/dc/dcmitype/StillImage" />
        <dc:title></dc:title>
      </cc:Work>
    </rdf:RDF>
  </metadata>
  <g
     transform="translate(-167.61082,890.14282)"
     id="layer1">
    <g
       style="fill:#00000d;fill-opacity:1;stroke:#394b5f;stroke-opacity:1"
       id="g4154">
      <path
         points="295.93092,-368.32023 295.93092,-368.32022 295.93092,-368.32022 295.93092,-368.32023 "
         d="m 295.93092,-368.32023 0,0 0,10e-6 0,0 z"
         style="fill:#e9e9ff;fill-rule:evenodd;stroke:none;stroke-width:1px;stroke-linecap:butt;stroke-linejoin:round;stroke-opacity:1"
         id="path4166" />
      <path
         points="258.37502,-386.33023 295.93092,-368.32022 295.93092,-368.32023 258.37502,-386.33024 "
         d="m 258.37502,-386.33024 0,1e-5 37.5559,18.01001 0,-10e-6 z"
         style="fill:#353564;fill-rule:evenodd;stroke:none;stroke-width:1px;stroke-linecap:butt;stroke-linejoin:round;stroke-opacity:1"
         id="path4156" />
      <path
         points="258.37502,-386.33024 295.93092,-368.32023 295.93092,-368.32023 258.37502,-386.33024 "
         d="m 258.37502,-386.33024 0,0 37.5559,18.01001 0,0 z"
         style="fill:#4d4d9f;fill-rule:evenodd;stroke:none;stroke-width:1px;stroke-linecap:butt;stroke-linejoin:round;stroke-opacity:1"
         id="path4158" />
      <path
         points="258.37502,-386.33023 295.93092,-368.32022 295.93092,-368.32022 258.37502,-386.33023 "
         d="m 258.37502,-386.33023 0,0 37.5559,18.01001 0,0 z"
         style="fill:#afafde;fill-rule:evenodd;stroke:none;stroke-width:1px;stroke-linecap:butt;stroke-linejoin:round;stroke-opacity:1"
         id="path4164" />
      <path
         points="258.37502,-386.33023 295.93092,-368.32022 295.93092,-368.32023 258.37502,-386.33024 "
         d="m 258.37502,-386.33024 0,1e-5 37.5559,18.01001 0,-10e-6 z"
         style="fill:#d7d7ff;fill-rule:evenodd;stroke:none;stroke-width:1px;stroke-linecap:butt;stroke-linejoin:round;stroke-opacity:1"
         id="path4162" />
      <path
         points="258.37502,-386.33024 258.37502,-386.33023 258.37502,-386.33023 258.37502,-386.33024 "
         d="m 258.37502,-386.33024 0,0 0,1e-5 0,0 z"
         style="fill:#8686bf;fill-rule:evenodd;stroke:none;stroke-width:1px;stroke-linecap:butt;stroke-linejoin:round;stroke-opacity:1"
         id="path4160" />
    </g>
    <path
       id="rect4168"
       d="m 168.54593,277.01987 325.93039,1.43585 56.30441,82.91189 -32.32488,53.54184 -23.48895,37.74676 -324.90574,-0.87619 53.53809,-91.87738 z"
       style="fill:#f39f18;fill-opacity:1;stroke:#f39f18;stroke-opacity:1" />
  </g>
</svg>
