<svg xmlns="http://www.w3.org/2000/svg" height="354.701" width="500" viewBox="0 0 500 354.70126" id="LOGO"><style id="style2">.Arched_x0020_Green{fill:url(#SVGID_1_);stroke:#transparent;stroke-width:.25;stroke-miterlimit:1}.st0{fill:#fff}</style><linearGradient y2="1399.293" x2="-599.293" y1="1400" x1="-600" gradientUnits="userSpaceOnUse" id="SVGID_1_"><stop id="stop4" offset="0" stop-color="#20ac4b"/><stop id="stop6" offset=".983" stop-color="#19361a"/></linearGradient><g transform="translate(-150 -222.599)" id="g63"><g id="g59"><g id="g17"><path id="polygon9" class="st0" fill="#fff" d="M168 532.8h24v12.3h-39.4v-49.8H168z"/><path id="path11" d="M202.9 520.2c0-8.1 2.3-14.5 6.8-19s10.9-6.8 18.9-6.8c8.3 0 14.7 2.2 19.2 6.7s6.7 10.7 6.7 18.7c0 5.8-1 10.6-2.9 14.3-2 3.7-4.8 6.6-8.5 8.7-3.7 2.1-8.3 3.1-13.9 3.1s-10.3-.9-14-2.7c-3.7-1.8-6.7-4.6-9-8.5-2.2-3.8-3.3-8.7-3.3-14.5zm15.4.1c0 5 .9 8.7 2.8 10.8 1.9 2.2 4.4 3.3 7.6 3.3 3.3 0 5.9-1.1 7.7-3.2 1.8-2.2 2.7-6 2.7-11.6 0-4.7-.9-8.1-2.8-10.3-1.9-2.2-4.5-3.2-7.7-3.2-3.1 0-5.6 1.1-7.5 3.3-1.9 2.2-2.8 5.8-2.8 10.9z" class="st0" fill="#fff"/><path id="path13" d="M294.9 527.1v-10.4h23.8V538c-4.6 3.1-8.6 5.2-12.1 6.3-3.5 1.1-7.7 1.7-12.5 1.7-5.9 0-10.7-1-14.5-3-3.7-2-6.6-5-8.7-9-2.1-4-3.1-8.6-3.1-13.7 0-5.4 1.1-10.2 3.4-14.2 2.2-4 5.5-7.1 9.9-9.2 3.4-1.6 7.9-2.4 13.6-2.4 5.5 0 9.6.5 12.4 1.5 2.7 1 5 2.5 6.8 4.6 1.8 2.1 3.2 4.8 4.1 8l-14.9 2.7c-.6-1.9-1.6-3.3-3.1-4.3s-3.3-1.5-5.6-1.5c-3.4 0-6.1 1.2-8.1 3.5s-3 6.1-3 11.1c0 5.4 1 9.3 3 11.6 2 2.3 4.9 3.5 8.5 3.5 1.7 0 3.4-.3 4.9-.7 1.6-.5 3.4-1.3 5.4-2.6v-4.7h-10.2z" class="st0" fill="#fff"/><path id="path15" d="M332.9 520.2c0-8.1 2.3-14.5 6.8-19s10.9-6.8 18.9-6.8c8.3 0 14.7 2.2 19.2 6.7s6.7 10.7 6.7 18.7c0 5.8-1 10.6-2.9 14.3-2 3.7-4.8 6.6-8.5 8.7-3.7 2.1-8.3 3.1-13.9 3.1s-10.3-.9-14-2.7c-3.7-1.8-6.7-4.6-9-8.5-2.2-3.8-3.3-8.7-3.3-14.5zm15.4.1c0 5 .9 8.7 2.8 10.8 1.9 2.2 4.4 3.3 7.6 3.3 3.3 0 5.9-1.1 7.7-3.2 1.8-2.2 2.7-6 2.7-11.6 0-4.7-.9-8.1-2.8-10.3-1.9-2.2-4.5-3.2-7.7-3.2-3.1 0-5.6 1.1-7.5 3.3-1.9 2.2-2.8 5.8-2.8 10.9z" class="st0" fill="#fff"/></g><path id="path19" d="M426.5 495.3h46.8v12.3h-15.7v37.6h-15.4v-37.6h-15.7z" class="st0" fill="#fff"/><path id="path21" d="M487.2 495.3h41.3v10.6h-25.8v7.9h24V524h-24v9.8h26.6v11.3h-42v-49.8z" class="st0" fill="#fff"/><path id="path23" d="M542.1 495.3h17l8.8 15.3 8.6-15.3h16.8l-15.5 24.2 17 25.7h-17.3l-9.8-16-9.8 16h-17.2l17.2-26z" class="st0" fill="#fff"/><path id="path25" d="M603.2 495.3H650v12.3h-15.7v37.6h-15.4v-37.6h-15.7z" class="st0" fill="#fff"/><g id="g57"><path id="path27" d="M156.2 577v-6.8l-6.2-9.3h2.6l3.2 4.9c.6.9 1.1 1.8 1.6 2.7.5-.8 1.1-1.8 1.8-2.8l3.1-4.7h2.5l-6.4 9.3v6.8h-2.2z" class="st0" fill="#fff"/><path id="path29" d="M180.9 569.2c0-2.7.7-4.8 2.2-6.3 1.4-1.5 3.3-2.3 5.6-2.3 1.5 0 2.8.4 4 1.1 1.2.7 2.1 1.7 2.7 3 .6 1.3.9 2.7.9 4.3 0 1.6-.3 3.1-1 4.4-.7 1.3-1.6 2.3-2.8 2.9-1.2.7-2.5 1-3.9 1-1.5 0-2.9-.4-4.1-1.1-1.2-.7-2.1-1.7-2.7-3-.6-1.2-.9-2.6-.9-4zm2.2 0c0 1.9.5 3.5 1.6 4.6 1 1.1 2.4 1.7 3.9 1.7 1.6 0 2.9-.6 4-1.7 1-1.1 1.6-2.7 1.6-4.8 0-1.3-.2-2.5-.7-3.4-.4-1-1.1-1.7-1.9-2.3-.9-.5-1.8-.8-2.9-.8-1.5 0-2.8.5-3.9 1.6-1.1 1-1.7 2.7-1.7 5.1z" class="st0" fill="#fff"/><path id="path31" d="M224.5 560.9h2.1v9.3c0 1.6-.2 2.9-.6 3.9-.4 1-1 1.7-2 2.3-1 .6-2.2.9-3.8.9-1.5 0-2.7-.3-3.7-.8s-1.6-1.3-2.1-2.3c-.4-1-.6-2.3-.6-4v-9.3h2.1v9.3c0 1.4.1 2.4.4 3.1.3.7.7 1.2 1.3 1.5.6.4 1.4.5 2.3.5 1.6 0 2.7-.4 3.4-1.1.7-.7 1-2.1 1-4.1v-9.2z" class="st0" fill="#fff"/><path id="path33" d="M245.1 577v-16.1h7.1c1.4 0 2.5.1 3.3.4.7.3 1.3.8 1.8 1.5.4.7.7 1.5.7 2.4 0 1.1-.4 2.1-1.1 2.9-.7.8-1.9 1.3-3.4 1.5.6.3 1 .5 1.3.8.6.6 1.2 1.3 1.8 2.1l2.8 4.4h-2.7l-2.1-3.4c-.6-1-1.1-1.7-1.5-2.2-.4-.5-.8-.9-1.1-1.1-.3-.2-.6-.3-1-.4-.2-.1-.6-.1-1.2-.1h-2.5v7.2h-2.2zm2.1-9h4.6c1 0 1.7-.1 2.3-.3.5-.2 1-.5 1.3-1 .3-.4.4-.9.4-1.4 0-.8-.3-1.4-.8-1.9-.6-.5-1.4-.7-2.6-.7h-5.1v5.3z" class="st0" fill="#fff"/><path id="path35" d="M301 577v-14.2h-5.3v-1.9h12.8v1.9h-5.3V577z" class="st0" fill="#fff"/><path id="path37" d="M322.1 577l6.2-16.1h2.3l6.6 16.1h-2.4l-1.9-4.9h-6.7l-1.8 4.9zm4.7-6.6h5.5l-1.7-4.5c-.5-1.4-.9-2.5-1.1-3.3-.2 1-.5 2.1-.9 3.1z" class="st0" fill="#fff"/><path id="path39" d="M361.3 570.7v-1.9h6.8v6c-1 .8-2.1 1.5-3.2 1.9-1.1.4-2.3.6-3.4.6-1.6 0-3-.3-4.3-1-1.3-.7-2.3-1.7-2.9-2.9-.7-1.3-1-2.7-1-4.3 0-1.6.3-3 1-4.4.7-1.4 1.6-2.4 2.8-3 1.2-.7 2.7-1 4.3-1 1.2 0 2.2.2 3.2.6.9.4 1.7.9 2.2 1.6.5.7.9 1.6 1.2 2.6l-2 .5c-.2-.8-.5-1.5-.9-1.9-.4-.5-.9-.8-1.5-1.1-.7-.3-1.4-.4-2.2-.4-1 0-1.8.1-2.5.4-.7.3-1.3.7-1.7 1.2-.4.5-.8 1-1 1.6-.4 1-.6 2.1-.6 3.2 0 1.4.2 2.6.7 3.6.5 1 1.2 1.7 2.2 2.2.9.5 2 .7 3 .7.9 0 1.8-.2 2.7-.5.9-.4 1.5-.7 2-1.1v-3h-4.9z" class="st0" fill="#fff"/><path id="path41" d="M386.1 577v-16.1h2.1v14.2h7.9v1.9z" class="st0" fill="#fff"/><path id="path43" d="M413.9 577v-16.1h2.1V577z" class="st0" fill="#fff"/><path id="path45" d="M434.6 577v-16.1h2.2l8.5 12.7v-12.7h2V577h-2.2l-8.5-12.7V577z" class="st0" fill="#fff"/><path id="path47" d="M465.8 577v-16.1h11.7v1.9H468v4.9h8.9v1.9H468v5.5h9.9v1.9z" class="st0" fill="#fff"/><path id="path49" d="M516.9 577v-16.1h2.1v6.6h8.4v-6.6h2.1V577h-2.1v-7.6H519v7.6z" class="st0" fill="#fff"/><path id="path51" d="M548 577v-16.1h11.7v1.9h-9.5v4.9h8.9v1.9h-8.9v5.5h9.9v1.9z" class="st0" fill="#fff"/><path id="path53" d="M577.9 577v-16.1h7.1c1.4 0 2.5.1 3.3.4.7.3 1.3.8 1.8 1.5.4.7.7 1.5.7 2.4 0 1.1-.4 2.1-1.1 2.9-.7.8-1.9 1.3-3.4 1.5.6.3 1 .5 1.3.8.6.6 1.2 1.3 1.8 2.1l2.8 4.4h-2.7l-2.1-3.4c-.6-1-1.1-1.7-1.5-2.2-.4-.5-.8-.9-1.1-1.1-.3-.2-.6-.3-1-.4-.2-.1-.6-.1-1.2-.1H580v7.2h-2.1zm2.1-9h4.6c1 0 1.7-.1 2.3-.3.5-.2 1-.5 1.3-1 .3-.4.4-.9.4-1.4 0-.8-.3-1.4-.8-1.9-.6-.5-1.4-.7-2.6-.7H580z" class="st0" fill="#fff"/><path id="path55" d="M609 577v-16.1h11.7v1.9h-9.5v4.9h8.9v1.9h-8.9v5.5h9.9v1.9z" class="st0" fill="#fff"/></g></g><path id="path61" d="M457.6 321.8l17.5-50.9c5.8 1.8 12.3-.6 15.5-6.1 3.7-6.4 1.5-14.6-4.9-18.3-6.4-3.7-14.6-1.5-18.3 4.9-3.2 5.6-2 12.5 2.6 16.6l-47.9 35.2-17.3-53.9c6.3-1 11.2-6.4 11.4-13 .1-7.4-5.8-13.5-13.2-13.7-7.4-.1-13.5 5.8-13.7 13.2-.1 6.7 4.7 12.3 11.2 13.4L381 302.5l-46.4-36.9c4.5-4 5.9-10.6 3.1-16.1-3.4-6.6-11.5-9.2-18.1-5.9-6.6 3.4-9.2 11.5-5.9 18.1 2.9 5.8 9.4 8.5 15.4 6.9l15.5 50-38.6 38.8 94.4 94.4 93.6-93.6zm-133 35.6l26.8-26.7h96.4l27.6 27.6-75 75z" class="st0" fill="#fff"/></g></svg>