<svg xmlns="http://www.w3.org/2000/svg" height="510.221" width="497.962" viewBox="0 0 497.96249 510.22055" id="Layer_1"><style id="style2">.st0{fill:#ccddcb}.st1{fill:#559898}.st2{fill:#00aaad}.st3{fill:#444445}.st4{fill:#ed2c58}.st5{fill:url(#XMLID_15_)}</style><g transform="translate(-373.2 -281.27)" id="XMLID_12_"><g id="XMLID_13_"><g id="XMLID_1_"><path d="M569.9 731.3c-36.3-33.4-57.9-83-57.5-132.1.5-49.3 22.7-98.3 59.5-131.3 12.7 14.4 25.4 28.6 38.3 43.1-25 22.1-40.1 55.2-40.2 88.6-.3 33.3 14.3 66.6 38.7 89.1-12.9 14.1-25.8 28.3-38.8 42.6z" class="st0" id="XMLID_11_" fill="#ccddcb"/><path d="M613.4 787.8c-48.6-15.2-91-50-115.6-94.7-24.3-44.5-30.8-98.9-17.6-148.1 13.3-49.1 46.4-92.8 89.8-119.1 43.8-26.2 97.7-35 147.5-23.6-1.4 6.1-2.8 12.2-4.1 18.1-45-10.3-94.2-2.3-133.7 21.5-39.5 23.7-69.5 63.5-81.6 107.9-12 44.6-6.1 94 16.1 134.5 22.3 40.5 60.8 72 104.8 85.9-2 5.7-3.8 11.7-5.6 17.6z" class="st1" id="XMLID_10_" fill="#559898"/><path d="M638.3 575.6c-80.4-38.9-160.9-77.5-241.3-116.5 20.2-42.1 49.9-79.6 85.9-109.4 56.8 68.9 113.6 137.9 170.4 206.8-6.2 5.2-11.3 11.7-15 19.1z" class="st2" id="XMLID_9_" fill="#fff"/><path d="M575.9 636.1c-64 19.6-128.1 39-192 58.6-4.7-15.7-8.3-31.7-10.7-47.8 66.2-9.8 132.4-19.5 198.5-29.3.8 6.3 2.4 12.6 4.2 18.5z" class="st3" id="XMLID_8_" fill="#444445"/><path d="M669.1 428.3c-.8-49.1-1.7-98.1-2.9-147 15.1-.2 30.2.6 45.1 2.5-6.4 48.6-12.7 97.2-19.1 145.8-7.5-1.1-15.3-1.6-23.1-1.3z" class="st4" id="XMLID_7_" fill="#ed2c58"/><path d="M414.8 524.3c17.4-72.8 67.3-137.8 133-173.7 65.8-35.6 147.4-42.2 218-17.3-4.3 12-8.5 24.2-12.7 36.2-60.6-21.2-130.6-15.7-186.9 15-56.4 30.5-99.1 86.4-114.2 148.7-12.4-2.8-24.8-5.9-37.2-8.9z" class="st0" id="XMLID_6_" fill="#ccddcb"/><path d="M689.7 600.4c-60.1-95-120.5-189.9-180.5-285 5.4-3.5 11.1-6.7 16.8-10 54.5 98.3 109 196.8 163.7 295z" class="st3" id="XMLID_5_" fill="#444445"/><path d="M457.3 728c-39.4-65.1-47.2-149-20.2-220.1 16.6 6.3 33.4 12.7 50.2 19-21.2 55.8-15.1 122 15.9 173.1-15.3 9.3-30.7 18.5-45.9 28z" class="st4" id="XMLID_4_" fill="#ed2c58"/><path d="M647.6 782.9c72.5 13.9 153-21.5 191.8-84.2 38.7-62.7 34.2-150.7-10.8-209.2 1.4-1.1 3-2.2 4.4-3.4 46.3 60.2 51 150.8 11.2 215.4-39.9 64.8-123 101.2-197.7 86.9.5-1.8.8-3.7 1.1-5.5z" class="st1" id="XMLID_3_" fill="#559898"/></g><linearGradient y2="435.72" x2="709.844" y1="769.645" x1="709.844" gradientUnits="userSpaceOnUse" id="XMLID_15_"><stop id="stop14" offset="0" stop-color="#18cfab"/><stop id="stop16" offset="1" stop-color="#07725d"/></linearGradient><path d="M681.2 435.7c-19.1 0-37.1 2.8-53.8 8.1l20.8 48.7c10-3 20.7-4.6 32-4.6 64.1 0 109.8 52.1 109.8 114.8v.9c0 62.7-44.7 113.9-108.9 113.9-29 0-54.2-10.7-73.2-28.2L570.1 731c28.7 24 66.5 38.6 110.1 38.6 99.2 0 169.3-76.1 169.3-167v-.9c0-90.8-69.1-166-168.3-166z" class="st5" id="XMLID_2_" fill="url(#XMLID_15_)"/></g></g></svg>