<?xml version="1.0" encoding="iso-8859-1"?>
<!-- Generator: Adobe Illustrator 19.1.0, SVG Export Plug-In . SVG Version: 6.00 Build 0)  -->
<svg xmlns="http://www.w3.org/2000/svg" xmlns:xlink="http://www.w3.org/1999/xlink" version="1.1" id="Capa_1" x="0px" y="0px" viewBox="0 0 63.37 63.37" style="enable-background:new 0 0 63.37 63.37;" xml:space="preserve" width="512px" height="512px">
<g>
	<g>
		<g id="group-34svg">
			<path id="path-1_28_" d="M15.71,61.996c-3.211,0-5.71-2.585-5.71-5.646V7.02c0-3.06,2.518-5.645,5.751-5.645     c0.707,0,1.289,0.126,1.94,0.374c0.078,0.029,0.099,0.065,0.171,0.107L59.83,26.463c2.164,0.882,3.54,2.941,3.54,5.284     c0,2.326-1.331,4.293-3.472,5.163L17.765,61.515c-0.071,0.042-0.04,0.078-0.118,0.107C16.996,61.87,16.415,61.996,15.71,61.996z      M15.751,4.375C14.349,4.375,13,5.461,13,7.02v49.33c0,1.559,1.328,2.646,2.71,2.646c0.3,0,0.486-0.047,0.764-0.14l42.057-24.595     c0.071-0.042,0.119-0.078,0.196-0.107c1.037-0.395,1.643-1.296,1.643-2.408c0-0.901-0.466-2.039-1.753-2.53     c-0.078-0.03-0.156-0.066-0.227-0.108L16.52,4.514C16.241,4.422,16.053,4.375,15.751,4.375z" fill="#18cfab"/>
			<path id="path-2_21_" d="M1.5,59.272c-0.828,0-1.5-0.672-1.5-1.5v-52c0-0.828,0.672-1.5,1.5-1.5S3,4.944,3,5.772v52     C3,58.6,2.328,59.272,1.5,59.272z" fill="#18cfab"/>
		</g>
	</g>
	<g>
	</g>
	<g>
	</g>
	<g>
	</g>
	<g>
	</g>
	<g>
	</g>
	<g>
	</g>
	<g>
	</g>
	<g>
	</g>
	<g>
	</g>
	<g>
	</g>
	<g>
	</g>
	<g>
	</g>
	<g>
	</g>
	<g>
	</g>
	<g>
	</g>
</g>
<g>
</g>
<g>
</g>
<g>
</g>
<g>
</g>
<g>
</g>
<g>
</g>
<g>
</g>
<g>
</g>
<g>
</g>
<g>
</g>
<g>
</g>
<g>
</g>
<g>
</g>
<g>
</g>
<g>
</g>
</svg>
