<svg xmlns="http://www.w3.org/2000/svg" viewBox="0 0 782.40069 130.54161"><path d="M26.492 123.294c-3.232-1.706-7.614-5.569-9.738-8.584-4.258-6.045-4.754-10.802-2.88-27.647.934-8.402.755-9.689-1.798-12.903-1.56-1.964-4.926-4.26-7.482-5.103-5.876-1.939-5.876-3.38 0-5.32 2.555-.843 5.922-3.14 7.482-5.103 2.553-3.214 2.732-4.501 1.798-12.903-1.728-15.539-1.294-21.215 2.033-26.599 3.699-5.986 11.322-11.235 17.855-12.295 6.853-1.112 6.2 1.508-1.191 4.777-8.734 3.864-10.269 8.182-7.845 22.076 2.671 15.309-.451 23.907-10.682 29.417-2.619 1.41-4.762 2.955-4.762 3.433 0 .478 1.837 1.629 4.081 2.559 2.245.93 5.58 3.656 7.412 6.057 5.222 6.847 6.054 11.892 3.95 23.95-2.424 13.894-.89 18.213 7.845 22.076 3.325 1.471 6.045 3.246 6.045 3.945 0 2.268-6.105 1.346-12.124-1.831zm446.79-23.029c-33.042-11.933-42.597-60.307-17.328-87.721C463.601 4.248 471.883.556 484.195-.045c8.757-.428 11.306-.015 17.531 2.834 9.688 4.435 17.573 12.587 22.638 23.405 3.461 7.391 4.241 10.891 4.686 21.009 1.069 24.339-9.097 43.366-27.523 51.517-8.201 3.628-20.6 4.306-28.245 1.545zm24.24-6.615c5.789-3.738 11.685-11.972 15.221-21.255 3.954-10.381 3.587-35.892-.671-46.558-3.589-8.991-12.089-18.98-18.414-21.638-17.573-7.385-34.706 10.351-38.27 39.616-2.679 22.002 8.82 47.159 24.06 52.637 6.242 2.244 11.529 1.424 18.073-2.802zm71.77 5.288c-6.089-2.641-10.272-6.643-13.806-13.209-2.678-4.976-2.915-7.73-3.537-41.121-.664-35.632-.68-35.798-3.814-38.333-1.731-1.4-4.281-2.546-5.667-2.546-1.385 0-2.519-.6-2.519-1.333 0-.823 6.889-1.333 18-1.333s18 .51 18 1.333c0 .733-1.134 1.333-2.519 1.333-4.664 0-8.371 4.391-9.051 10.719-.639 5.941-.616 5.977 21.799 35.502 12.341 16.255 22.902 29.111 23.47 28.568 2.243-2.146 3.619-17.956 3.608-41.457-.014-28.161-.653-30.657-8.339-32.568-8.71-2.166-5.378-3.432 9.033-3.432 14.263 0 17.418 1.104 9.686 3.391-7.137 2.111-7.644 4.671-7.666 38.7-.022 33.831-1.142 40.951-7.664 48.702-5.422 6.443-12.652 9.152-24.356 9.125-5.944-.014-11.889-.842-14.657-2.043zm28.139-6.364l3.482-1.513-15.907-20.667c-8.749-11.367-17.099-22.167-18.556-24l-2.649-3.333.527 16.667c.708 22.398 4.657 31.435 15.145 34.658 4.282 1.316 12.716.465 17.958-1.813zm-260.148 4.68c0-.627 1.942-1.698 4.316-2.378 6.292-1.805 7.641-5.703 7.664-22.148l.02-14.333h11.782l.442 16.777c.54 20.509 1.025 21.177 14.592 20.105 12.968-1.024 26.794-8.367 24.79-13.166-.394-.944-14.852-18.816-32.128-39.716-17.276-20.9-31.426-38.75-31.445-39.667-.026-1.279 6.14-1.667 26.48-1.667 31.15 0 36.783 1.229 46.765 10.204 8.528 7.667 12.319 16.579 13.111 30.821 1.563 28.082-9.142 47.188-30.059 53.648-7.245 2.238-12.399 2.66-32.471 2.66-13.123 0-23.86-.513-23.86-1.14zm72.523-38.526c1.251-12.974-1.084-28.861-5.527-37.615-6.58-12.963-18.091-17.949-39.498-17.109l-9.949.39 26.076 31.667c14.342 17.417 26.516 31.667 27.053 31.667.537 0 1.367-4.05 1.845-9zm239.477 39.046c0-.341 13.2-21.281 29.333-46.533 16.133-25.252 29.333-46.273 29.333-46.713 0-1.489-32.627-.664-37.208.941-6.2 2.172-9.209 6.734-10.943 16.591-.974 5.533-2.091 8.333-3.324 8.333-1.475 0-1.858-3.018-1.858-14.667V1.059h71.856l-30.016 47-30.016 47 16.125.375c8.869.206 18.478-.259 21.354-1.033 6.749-1.817 10.418-7.006 12.231-17.296.935-5.31 2.049-8.045 3.275-8.045 1.475 0 1.858 3.018 1.858 14.667v14.667h-36c-19.8 0-36-.279-36-.621z" fill="#fefefe"/><path d="M93.83 1.256c-62.428 86.065-31.214 43.033 0 0z" fill="#5cdbc0"/><path d="M747.949 125.206c0-.517 2.082-1.694 4.627-2.614 2.545-.92 5.916-3.483 7.491-5.695 2.993-4.204 2.998-4.471.446-24.599-1.341-10.576 4.891-20.407 15.402-24.295 2.675-.989 2.367-1.416-3.779-5.237-9.025-5.611-12.817-12.883-11.612-22.272 2.513-19.572 2.48-21.271-.485-25.027-1.56-1.977-4.919-4.348-7.464-5.268-6.846-2.476-5.624-3.982 1.313-1.618 7.092 2.417 14.657 10.266 16.57 17.193 1.003 3.633.823 7.757-.694 15.936-1.883 10.153-1.869 11.38.179 15.339 1.398 2.703 4.163 5.117 7.436 6.491 2.866 1.203 5.21 2.487 5.21 2.854s-2.345 1.651-5.21 2.854c-3.273 1.374-6.038 3.788-7.436 6.491-2.048 3.959-2.062 5.187-.179 15.339 2.597 14.002 1.346 19.286-6.312 26.663-4.973 4.791-15.503 9.859-15.503 7.462zM84.907 99.616c6.321-1.529 10.322-5.736 12.313-12.944 2.678-9.698-4.861-19.075-24.323-30.255-7.761-4.458-12.805-10.772-13.875-17.366l-.799-4.926 3.863 2.006c2.125 1.103 6.263 3.922 9.197 6.264 2.933 2.342 9.233 6.563 14 9.379 17.407 10.285 24.356 20.732 21.31 32.042-2.67 9.915-9.214 15.113-20.661 16.409l-6.649.753zM57.282 85.877c0-8.543.528-14.148 1.333-14.148.733 0 1.213 1.955 1.363 4.333.827 13.104 9.627 23.123 15.629 22.333 1.156-.152 1.718.402 1.227.893-.491.491-3.957-.543-7.703-2.297l-6.81-3.19-2.519 3.111c-2.507 3.097-2.519 3.044-2.519-11.036zm82.993 10.427c2.013-1.092 4.754-4.218 6.092-6.947s8.363-23.719 15.611-46.645l13.178-41.684 12.262 35.684c10.628 30.928 12.436 35.24 13.568 32.351.718-1.833 5.993-17.889 11.721-35.68S223.533 1.492 224.036 2.05c.502.557 7.353 20.408 15.224 44.113 12.643 38.076 14.843 43.632 18.878 47.667l4.567 4.567-14.378-.053c-13.51-.05-14.156-.173-10.711-2.043 2.817-1.528 3.672-2.983 3.691-6.28.023-4.13-21.316-68.939-22.703-68.951-.917-.008-17.339 52.059-17.329 54.944.017 4.901 5.641 17.049 9.082 19.617l3.592 2.681-16-.078c-12.18-.059-14.973-.375-11.697-1.321 8.593-2.483 8.486-3.653-3.742-40.758-6.119-18.567-11.469-33.759-11.889-33.759-1.162 0-20.005 60.5-20.005 64.231 0 4.514 2.893 8.029 8.184 9.944 4.058 1.468 3.219 1.627-8.851 1.67-12.544.045-13.117-.069-9.674-1.937zm146.298-.018c2.543-1.103 5.084-2.73 5.646-3.614 1.335-2.101 1.335-83.783 0-85.885-.562-.885-3.103-2.511-5.646-3.614-4.425-1.919-3.879-2.006 12.71-2.006 16.589 0 17.135.086 12.71 2.006-2.543 1.103-5.084 2.73-5.646 3.614-1.335 2.101-1.335 83.783 0 85.885.562.885 3.103 2.511 5.646 3.614 4.425 1.919 3.879 2.006-12.71 2.006-16.589 0-17.135-.086-12.71-2.006zM111.179 64.664c-2.257-1.614-6.041-5.152-8.408-7.863-2.368-2.71-9.645-8.298-16.172-12.416-14.234-8.981-17.887-13.932-17.887-24.241 0-10.844 13.443-21.199 25.144-18.239l4.857 1.229-7.366.102c-6.966.096-15.385 6.84-15.393 13.185-.008 6.551 5.415 12.767 17.277 19.801 16.512 9.792 27.808 16.358 24.052 28.132-1.238 3.881-.786 4.113-6.104.311zm.326-40.49c-.489-.489-.896-2.139-.905-3.667-.009-1.528-1.509-5.389-3.333-8.581-1.824-3.192-6.322-8.024-6.322-8.214 0-.19 4.391 1.985 6.086 2.309 2.25.43 3.485-.249 4.576-2.518 1.225-2.548 1.511-.886 1.585 9.226.09 12.333-.024 13.108-1.688 11.444zM100.695 3.02c-67.004 84.889-33.502 42.444 0 0z" fill="#21ceaa"/></svg>