<?xml version="1.0" encoding="UTF-8" standalone="no"?>
<!-- Created with Inkscape (http://www.inkscape.org/) -->

<svg
	 xmlns:dc="http://purl.org/dc/elements/1.1/"
	 xmlns:cc="http://creativecommons.org/ns#"
	 xmlns:rdf="http://www.w3.org/1999/02/22-rdf-syntax-ns#"
	 xmlns:svg="http://www.w3.org/2000/svg"
	 xmlns="http://www.w3.org/2000/svg"
	 xmlns:sodipodi="http://sodipodi.sourceforge.net/DTD/sodipodi-0.dtd"
	 xmlns:inkscape="http://www.inkscape.org/namespaces/inkscape"
	 version="1.1"
	 id="svg2"
	 width="782.4007"
	 height="130.54161"
	 viewBox="0 0 782.40069 130.54161"
	 sodipodi:docname="logo.svg"
	 inkscape:version="0.92.0 r15299">
	<metadata
		 id="metadata8">
		<rdf:RDF>
			<cc:Work
				 rdf:about="">
				<dc:format>image/svg+xml</dc:format>
				<dc:type
					 rdf:resource="http://purl.org/dc/dcmitype/StillImage" />
				<dc:title></dc:title>
			</cc:Work>
		</rdf:RDF>
	</metadata>
	<defs
		 id="defs6" />
	<sodipodi:namedview
		 pagecolor="#ffffff"
		 bordercolor="#666666"
		 borderopacity="1"
		 objecttolerance="10"
		 gridtolerance="10"
		 guidetolerance="10"
		 inkscape:pageopacity="0"
		 inkscape:pageshadow="2"
		 inkscape:window-width="1920"
		 inkscape:window-height="1017"
		 id="namedview4"
		 showgrid="false"
		 inkscape:zoom="5.3250001"
		 inkscape:cx="136.76993"
		 inkscape:cy="80.361331"
		 inkscape:window-x="-8"
		 inkscape:window-y="-8"
		 inkscape:window-maximized="1"
		 inkscape:current-layer="svg2"
		 fit-margin-top="0"
		 fit-margin-left="0"
		 fit-margin-right="0"
		 fit-margin-bottom="0" />
	<g
		 id="g12"
		 transform="translate(-34.717702,-22.936754)">
		<path
			 style="fill:#fefefe;stroke-width:1.33333337"
			 d="m 61.20971,146.23097 c -3.232008,-1.7063 -7.613919,-5.56912 -9.737582,-8.58404 C 47.21404,131.6018 46.718505,126.84518 48.591935,110 c 0.934456,-8.40227 0.755112,-9.68948 -1.797816,-12.903479 -1.5597,-1.963578 -4.926436,-4.26011 -7.481636,-5.103402 -5.875984,-1.93925 -5.875984,-3.380322 0,-5.319571 2.5552,-0.843292 5.921936,-3.139824 7.481636,-5.103403 2.552928,-3.214 2.732272,-4.501205 1.797816,-12.903478 -1.72819,-15.539239 -1.294311,-21.215444 2.033216,-26.599496 3.699394,-5.985744 11.322322,-11.23508 17.854615,-12.295126 6.853269,-1.112132 6.199879,1.507631 -1.191467,4.777175 -8.734178,3.863543 -10.268694,8.181929 -7.844639,22.076135 2.670946,15.309341 -0.451035,23.906993 -10.681763,29.416604 -2.619044,1.410449 -4.761898,2.955217 -4.761898,3.43282 0,0.477601 1.836526,1.629081 4.08117,2.558842 2.244643,0.929763 5.580043,3.6556 7.411999,6.057419 5.222192,6.84665 6.054322,11.89153 3.950492,23.95027 -2.424055,13.89421 -0.889539,18.2126 7.844639,22.07613 3.324768,1.47071 6.045032,3.24593 6.045032,3.94495 0,2.2684 -6.104685,1.34621 -12.123621,-1.83142 z M 507.99999,123.2024 c -33.04195,-11.93322 -42.59722,-60.30656 -17.32763,-87.72082 7.64723,-8.296257 15.92887,-11.987965 28.24131,-12.589121 8.7572,-0.427572 11.30598,-0.01549 17.53061,2.834229 9.68789,4.435263 17.573,12.587437 22.63824,23.404979 3.4608,7.391029 4.24133,10.890752 4.68561,21.009025 1.06868,24.338687 -9.09668,43.365628 -27.52333,51.516618 -8.20109,3.62773 -20.60011,4.306 -28.24481,1.54509 z m 24.23962,-6.61456 c 5.78916,-3.73845 11.6854,-11.97187 15.2211,-21.254507 3.95415,-10.381313 3.58658,-35.891769 -0.67087,-46.558414 -3.58871,-8.991202 -12.08929,-18.980458 -18.41369,-21.638414 -17.57288,-7.385353 -34.70586,10.350611 -38.2695,39.616368 -2.67914,22.001991 8.81995,47.159377 24.0597,52.637087 6.24242,2.24375 11.52868,1.42416 18.07326,-2.80212 z m 71.76989,5.28818 c -6.08908,-2.64056 -10.27196,-6.64268 -13.80594,-13.20935 -2.67802,-4.97614 -2.9149,-7.73017 -3.53691,-41.120713 -0.66377,-35.632245 -0.68031,-35.798412 -3.81437,-38.333333 -1.73126,-1.400276 -4.28126,-2.545957 -5.66667,-2.545957 -1.38543,0 -2.51896,-0.6 -2.51896,-1.333334 0,-0.823045 6.88889,-1.333333 18,-1.333333 11.11111,0 18,0.510288 18,1.333333 0,0.733334 -1.13353,1.333334 -2.51896,1.333334 -4.66363,0 -8.37101,4.390657 -9.05117,10.719281 -0.63854,5.941335 -0.61636,5.977455 21.79881,35.502484 12.34089,16.255304 22.90223,29.111058 23.46964,28.568348 2.24316,-2.145528 3.619,-17.955927 3.60764,-41.45678 -0.0136,-28.16142 -0.65263,-30.657044 -8.33907,-32.568487 C 630.92397,25.26564 634.25564,24 648.66665,24 c 14.26324,0 17.41803,1.10446 9.68589,3.390937 -7.13729,2.11058 -7.64449,4.671004 -7.66624,38.700395 -0.0216,33.831323 -1.14198,40.950828 -7.66404,48.701838 -5.42153,6.44313 -12.65196,9.15217 -24.35561,9.12536 -5.94427,-0.0136 -11.88881,-0.842 -14.65715,-2.04251 z m 28.13867,-6.3635 L 635.62969,114 619.72274,93.333333 c -8.74882,-11.366666 -17.09894,-22.166666 -18.55581,-24 L 598.51805,66 l 0.52697,16.666667 c 0.7082,22.398243 4.65687,31.434513 15.14503,34.658453 4.28151,1.31609 12.71612,0.46474 17.95812,-1.8126 z m -260.14818,4.68036 c 0,-0.62725 1.94239,-1.69752 4.31641,-2.37838 6.29227,-1.8046 7.64139,-5.70336 7.66394,-22.147833 l 0.0197,-14.333334 h 5.89125 5.89127 l 0.44207,16.776927 c 0.54042,20.50939 1.02488,21.17687 14.59224,20.1053 12.96797,-1.02422 26.79411,-8.36737 24.78962,-13.1659 -0.39433,-0.94398 -14.85184,-18.816327 -32.12781,-39.716327 -17.27597,-20.9 -31.42611,-38.75 -31.44475,-39.666666 C 372.00788,24.388073 378.17351,24 398.51355,24 c 31.15,0 36.78274,1.229064 46.76521,10.204163 8.52756,7.667004 12.31888,16.579264 13.11141,30.821001 1.56272,28.082277 -9.14206,47.187586 -30.0594,53.648296 -7.24479,2.23769 -12.39875,2.65987 -32.47123,2.65987 -13.12275,0 -23.85955,-0.5132 -23.85955,-1.14045 z m 72.52316,-38.526213 c 1.25086,-12.974083 -1.08352,-28.861118 -5.52706,-37.615012 -6.58004,-12.962914 -18.09094,-17.94889 -39.49823,-17.10876 L 389.54911,27.333333 415.62535,59 c 14.34192,17.416667 26.51584,31.666667 27.05316,31.666667 0.5373,0 1.36738,-4.05 1.84464,-9 z m 239.47683,39.046143 c 0,-0.34129 13.2,-21.281049 29.33333,-46.532797 16.13334,-25.251748 29.33334,-46.27251 29.33334,-46.712808 0,-1.489445 -32.62686,-0.663977 -37.20846,0.941384 -6.19996,2.172428 -9.20866,6.733971 -10.94333,16.591411 -0.97363,5.532705 -2.09075,8.333333 -3.32401,8.333333 -1.47524,0 -1.85754,-3.018464 -1.85754,-14.666666 V 24 h 35.9285 35.9285 l -30.01613,47 -30.01612,47 16.12496,0.37467 c 8.86873,0.20607 18.47799,-0.25893 21.35391,-1.03333 6.7491,-1.81735 10.4183,-7.00613 12.23086,-17.29625 C 751.80313,94.735157 752.91643,92 754.14245,92 c 1.47524,0 1.85753,3.018464 1.85753,14.66667 v 14.66666 h -36 c -19.8,0 -36,-0.27923 -36,-0.62052 z"
			 id="path32"
			 inkscape:connector-curvature="0" />
		<path
			 style="fill:#5cdbc0;stroke-width:1.33333337"
			 d="m 128.54762,24.192609 c -62.428083,86.065311 -31.214042,43.032654 0,0 z"
			 id="path20"
			 inkscape:connector-curvature="0"
			 sodipodi:nodetypes="cc" />
		<path
			 style="fill:#21ceaa;stroke-width:1.33333337"
			 d="m 782.66665,148.14305 c 0,-0.51737 2.08221,-1.69362 4.62716,-2.61388 2.54493,-0.92026 5.91573,-3.48286 7.49067,-5.69466 2.99318,-4.20352 2.99802,-4.47071 0.44582,-24.59939 -1.34099,-10.57611 4.8912,-20.406611 15.40205,-24.294829 2.67468,-0.989428 2.36673,-1.416126 -3.77939,-5.23676 -9.02549,-5.610558 -12.81726,-12.883266 -11.61193,-22.271983 2.51268,-19.572065 2.4798,-21.270611 -0.48451,-25.026508 -1.5605,-1.977229 -4.91911,-4.347761 -7.46358,-5.267852 -6.84601,-2.475551 -5.62369,-3.981841 1.31315,-1.618221 7.09226,2.416574 14.65691,10.265886 16.56962,17.193125 1.003,3.632579 0.82344,7.756663 -0.69387,15.936407 -1.88326,10.152573 -1.86897,11.379936 0.17854,15.339384 1.39798,2.703409 4.16301,5.117245 7.4357,6.491298 2.86556,1.203118 5.21011,2.487486 5.21011,2.854152 0,0.366667 -2.34455,1.651035 -5.21011,2.854152 -3.27269,1.374054 -6.03772,3.78789 -7.4357,6.491299 -2.04751,3.959446 -2.0618,5.186806 -0.17854,15.339386 2.59724,14.00162 1.34634,19.28563 -6.31209,26.66327 -4.97331,4.79096 -15.5031,9.85892 -15.5031,7.46161 z M 119.62515,122.5535 c 6.32062,-1.52891 10.32225,-5.73583 12.31259,-12.94423 2.67763,-9.697586 -4.86095,-19.074779 -24.32312,-30.255394 C 99.854028,74.895577 94.809873,68.582299 93.739781,61.988089 l -0.799456,-4.926468 3.86317,2.006 c 2.124742,1.1033 6.263165,3.922192 9.196505,6.264203 2.93333,2.342011 9.23333,6.562541 14,9.378956 17.40742,10.285288 24.35553,20.732303 21.31025,32.04162 -2.66995,9.9154 -9.21441,15.11298 -20.66115,16.40898 L 114,123.91419 Z M 91.999997,108.81438 c 0,-8.54292 0.528216,-14.147713 1.333334,-14.147713 0.733333,0 1.212556,1.954674 1.362616,4.333333 0.82666,13.10372 9.627263,23.12273 15.628573,22.33333 1.156,-0.15206 1.71818,0.40175 1.22715,0.89277 -0.49102,0.49102 -3.9573,-0.54259 -7.70285,-2.29691 l -6.810088,-3.18967 -2.519368,3.11128 c -2.507456,3.09658 -2.519367,3.04441 -2.519367,-11.03642 z m 82.992663,10.42683 c 2.01263,-1.09195 4.75391,-4.21792 6.09172,-6.94662 1.33782,-2.72869 8.36271,-23.71913 15.61085,-46.645419 l 13.17846,-41.684163 12.262,35.684163 C 232.76347,90.577527 234.57175,94.889083 235.70365,92 c 0.71828,-1.833333 5.9929,-17.889225 11.7214,-35.679761 5.72848,-17.790535 10.82634,-31.890535 11.32858,-31.333334 0.50224,0.557203 7.35307,20.408022 15.22404,44.112934 12.64268,38.075731 14.84324,43.632191 18.87772,47.666671 l 4.56683,4.56682 -14.37779,-0.0534 c -13.51002,-0.0502 -14.15648,-0.17344 -10.7111,-2.04258 2.81698,-1.52824 3.67226,-2.9835 3.6908,-6.27995 0.0232,-4.12964 -21.31616,-68.939048 -22.7032,-68.951381 -0.91739,-0.0081 -17.3389,52.058845 -17.32887,54.943944 0.0171,4.900537 5.64148,17.049007 9.08243,19.617497 l 3.59217,2.68137 -16,-0.078 c -12.17964,-0.0594 -14.97267,-0.37486 -11.69744,-1.32124 8.59315,-2.483 8.48573,-3.65316 -3.74155,-40.757756 -6.11853,-18.56718 -11.46865,-33.758511 -11.88914,-33.758511 -1.16206,0 -20.0052,60.500317 -20.0052,64.231347 0,4.51409 2.89272,8.02866 8.18422,9.94362 4.05754,1.46839 3.21854,1.62671 -8.85089,1.67021 -12.54437,0.0452 -13.1168,-0.0694 -9.674,-1.9373 z m 146.29764,-0.0178 c 2.543,-1.10303 5.08381,-2.72955 5.64624,-3.61448 1.33544,-2.10116 1.33544,-83.783437 0,-85.884602 -0.56243,-0.884933 -3.10324,-2.511448 -5.64624,-3.614479 -4.42508,-1.919385 -3.8793,-2.005508 12.70969,-2.005508 16.58899,0 17.13477,0.08612 12.70969,2.005508 -2.543,1.103031 -5.08381,2.729546 -5.64624,3.614479 -1.33544,2.101165 -1.33544,83.783442 0,85.884602 0.56243,0.88493 3.10324,2.51145 5.64624,3.61448 4.42508,1.91938 3.8793,2.00551 -12.70969,2.00551 -16.58899,0 -17.13477,-0.0861 -12.70969,-2.00551 z M 145.89649,87.601284 c -2.25692,-1.61404 -6.04068,-5.152276 -8.40835,-7.862748 -2.36766,-2.710472 -9.64522,-8.297789 -16.17234,-12.416263 -14.23413,-8.981433 -17.88723,-13.932224 -17.88723,-24.241288 0,-10.844001 13.44321,-21.199073 25.1442,-18.23919 l 4.85748,1.228748 -7.36588,0.101763 c -6.96599,0.09624 -15.38486,6.83993 -15.39272,13.184847 -0.008,6.551308 5.41487,12.766804 17.27669,19.80148 16.51179,9.792351 27.80753,16.357795 24.05166,28.131875 -1.23791,3.880656 -0.78632,4.113355 -6.10351,0.310776 z m 0.32573,-40.490173 c -0.48889,-0.488888 -0.89612,-2.138888 -0.90496,-3.666667 -0.009,-1.527777 -1.50882,-5.389021 -3.33333,-8.580543 -1.82449,-3.19152 -6.32196,-8.024045 -6.32196,-8.214165 0,-0.19012 4.39145,1.985158 6.08639,2.309157 2.2503,0.430176 3.48493,-0.249186 4.57642,-2.518229 1.22548,-2.547601 1.51099,-0.885705 1.58498,9.226003 0.0903,12.333122 -0.024,13.107966 -1.68754,11.444444 z m -10.8104,-21.153515 c -67.004217,84.888654 -33.50211,42.444325 0,0 z"
			 id="path14"
			 inkscape:connector-curvature="0"
			 sodipodi:nodetypes="sccsssscsscscssscssscssscscscsccsssscsccsccscscccscccccccsccsssscscccccsssccsscccssscscssccccscccccc" />
	</g>
</svg>
