<?xml version="1.0" encoding="UTF-8" standalone="no"?>
<svg
	 xmlns:dc="http://purl.org/dc/elements/1.1/"
	 xmlns:cc="http://creativecommons.org/ns#"
	 xmlns:rdf="http://www.w3.org/1999/02/22-rdf-syntax-ns#"
	 xmlns:svg="http://www.w3.org/2000/svg"
	 xmlns="http://www.w3.org/2000/svg"
	 height="510.22055"
	 width="497.96249"
	 xml:space="preserve"
	 viewBox="0 0 497.96249 510.22055"
	 y="0px"
	 x="0px"
	 id="Layer_1"
	 version="1.1"><metadata
		 id="metadata27"><rdf:RDF><cc:Work
				 rdf:about=""><dc:format>image/svg+xml</dc:format><dc:type
					 rdf:resource="http://purl.org/dc/dcmitype/StillImage" /><dc:title></dc:title></cc:Work></rdf:RDF></metadata><defs
		 id="defs25" /><style
		 id="style2"
		 type="text/css">
	.st0{fill:#CCDDCB;}
	.st1{fill:#559898;}
	.st2{fill:#00AAAD;}
	.st3{fill:#444445;}
	.st4{fill:#ED2C58;}
	.st5{fill:url(#XMLID_15_);}
</style><g
		 transform="translate(-373.2,-281.2701)"
		 id="XMLID_12_"><g
			 id="XMLID_13_"><g
				 id="XMLID_1_"><path
					 style="fill:#ccddcb"
					 d="m 569.9,731.3 c -36.3,-33.4 -57.9,-83 -57.5,-132.1 0.5,-49.3 22.7,-98.3 59.5,-131.3 12.7,14.4 25.4,28.6 38.3,43.1 -25,22.1 -40.1,55.2 -40.2,88.6 -0.3,33.3 14.3,66.6 38.7,89.1 -12.9,14.1 -25.8,28.3 -38.8,42.6 z"
					 class="st0"
					 id="XMLID_11_" /><path
					 style="fill:#559898"
					 d="m 613.4,787.8 c -48.6,-15.2 -91,-50 -115.6,-94.7 C 473.5,648.6 467,594.2 480.2,545 c 13.3,-49.1 46.4,-92.8 89.8,-119.1 43.8,-26.2 97.7,-35 147.5,-23.6 -1.4,6.1 -2.8,12.2 -4.1,18.1 -45,-10.3 -94.2,-2.3 -133.7,21.5 -39.5,23.7 -69.5,63.5 -81.6,107.9 -12,44.6 -6.1,94 16.1,134.5 22.3,40.5 60.8,72 104.8,85.9 -2,5.7 -3.8,11.7 -5.6,17.6 z"
					 class="st1"
					 id="XMLID_10_" /><path
					 style="fill:#fff"
					 d="M 638.3,575.6 C 557.9,536.7 477.4,498.1 397,459.1 c 20.2,-42.1 49.9,-79.6 85.9,-109.4 56.8,68.9 113.6,137.9 170.4,206.8 -6.2,5.2 -11.3,11.7 -15,19.1 z"
					 class="st2"
					 id="XMLID_9_" /><path
					 style="fill:#444445"
					 d="m 575.9,636.1 c -64,19.6 -128.1,39 -192,58.6 -4.7,-15.7 -8.3,-31.7 -10.7,-47.8 66.2,-9.8 132.4,-19.5 198.5,-29.3 0.8,6.3 2.4,12.6 4.2,18.5 z"
					 class="st3"
					 id="XMLID_8_" /><path
					 style="fill:#ed2c58"
					 d="m 669.1,428.3 c -0.8,-49.1 -1.7,-98.1 -2.9,-147 15.1,-0.2 30.2,0.6 45.1,2.5 -6.4,48.6 -12.7,97.2 -19.1,145.8 -7.5,-1.1 -15.3,-1.6 -23.1,-1.3 z"
					 class="st4"
					 id="XMLID_7_" /><path
					 style="fill:#ccddcb"
					 d="m 414.8,524.3 c 17.4,-72.8 67.3,-137.8 133,-173.7 65.8,-35.6 147.4,-42.2 218,-17.3 -4.3,12 -8.5,24.2 -12.7,36.2 -60.6,-21.2 -130.6,-15.7 -186.9,15 -56.4,30.5 -99.1,86.4 -114.2,148.7 -12.4,-2.8 -24.8,-5.9 -37.2,-8.9 z"
					 class="st0"
					 id="XMLID_6_" /><path
					 style="fill:#444445"
					 d="m 689.7,600.4 c -60.1,-95 -120.5,-189.9 -180.5,-285 5.4,-3.5 11.1,-6.7 16.8,-10 54.5,98.3 109,196.8 163.7,295 z"
					 class="st3"
					 id="XMLID_5_" /><path
					 style="fill:#ed2c58"
					 d="m 457.3,728 c -39.4,-65.1 -47.2,-149 -20.2,-220.1 16.6,6.3 33.4,12.7 50.2,19 -21.2,55.8 -15.1,122 15.9,173.1 -15.3,9.3 -30.7,18.5 -45.9,28 z"
					 class="st4"
					 id="XMLID_4_" /><path
					 style="fill:#559898"
					 d="m 647.6,782.9 c 72.5,13.9 153,-21.5 191.8,-84.2 38.7,-62.7 34.2,-150.7 -10.8,-209.2 1.4,-1.1 3,-2.2 4.4,-3.4 46.3,60.2 51,150.8 11.2,215.4 -39.9,64.8 -123,101.2 -197.7,86.9 0.5,-1.8 0.8,-3.7 1.1,-5.5 z"
					 class="st1"
					 id="XMLID_3_" /></g><linearGradient
				 y2="435.7204"
				 x2="709.84381"
				 y1="769.6452"
				 x1="709.84381"
				 gradientUnits="userSpaceOnUse"
				 id="XMLID_15_"><stop
					 id="stop14"
					 style="stop-color:#18cfab"
					 offset="0" /><stop
					 id="stop16"
					 style="stop-color:#07725d"
					 offset="1" /></linearGradient><path
				 style="fill:url(#XMLID_15_)"
				 d="m 681.2,435.7 c -19.1,0 -37.1,2.8 -53.8,8.1 l 20.8,48.7 c 10,-3 20.7,-4.6 32,-4.6 64.1,0 109.8,52.1 109.8,114.8 v 0.9 c 0,62.7 -44.7,113.9 -108.9,113.9 -29,0 -54.2,-10.7 -73.2,-28.2 L 570.1,731 c 28.7,24 66.5,38.6 110.1,38.6 99.2,0 169.3,-76.1 169.3,-167 v -0.9 c 0,-90.8 -69.1,-166 -168.3,-166 z"
				 class="st5"
				 id="XMLID_2_" /></g></g></svg>